HIERARCHY
ROOT hip
{
  OFFSET 0 0 0
  CHANNELS 6 Xposition Yposition Zposition Zrotation Yrotation Xrotation
  JOINT abdomen
  {
    OFFSET 0 20.6881 -0.73152
    CHANNELS 3 Zrotation Xrotation Yrotation
    JOINT chest
    {
      OFFSET 0 11.7043 -0.48768
      CHANNELS 3 Zrotation Xrotation Yrotation
      JOINT neck
      {
        OFFSET 0 22.1894 -2.19456
        CHANNELS 3 Zrotation Xrotation Yrotation
        JOINT head
        {
          OFFSET -0.24384 7.07133 1.2192
          CHANNELS 3 Zrotation Xrotation Yrotation
          JOINT leftEye
          {
            OFFSET 4.14528 8.04674 8.04672
            CHANNELS 3 Zrotation Xrotation Yrotation
            End Site
            {
              OFFSET 1 0 0
            }
          }
          JOINT rightEye
          {
            OFFSET -3.6576 8.04674 8.04672
            CHANNELS 3 Zrotation Xrotation Yrotation
            End Site
            {
              OFFSET 1 0 0
            }
          }
        }
      }
      JOINT rCollar
      {
        OFFSET -2.68224 19.2634 -4.8768
        CHANNELS 3 Zrotation Xrotation Yrotation
        JOINT rShldr
        {
          OFFSET -8.77824 -1.95073 1.46304
          CHANNELS 3 Zrotation Xrotation Yrotation
          JOINT rForeArm
          {
            OFFSET -28.1742 -1.7115 0.48768
            CHANNELS 3 Zrotation Xrotation Yrotation
            JOINT rHand
            {
              OFFSET -22.5879 0.773209 7.07136
              CHANNELS 3 Zrotation Xrotation Yrotation
              JOINT rThumb1
              {
                OFFSET -1.2192 -0.487915 3.41376
                CHANNELS 3 Zrotation Xrotation Yrotation
                JOINT rThumb2
                {
                  OFFSET -3.37035 -0.52449 3.41376
                  CHANNELS 3 Zrotation Xrotation Yrotation
                  End Site
                  {
                    OFFSET -1.78271 -1.18214 1.43049
                  }
                }
              }
              JOINT rIndex1
              {
                OFFSET -7.75947 0.938293 5.60832
                CHANNELS 3 Zrotation Xrotation Yrotation
                JOINT rIndex2
                {
                  OFFSET -2.54057 -0.884171 1.56538
                  CHANNELS 3 Zrotation Xrotation Yrotation
                  End Site
                  {
                    OFFSET -1.62519 -0.234802 1.16502
                  }
                }
              }
              JOINT rMid1
              {
                OFFSET -8.24714 1.18213 3.41376
                CHANNELS 3 Zrotation Xrotation Yrotation
                JOINT rMid2
                {
                  OFFSET -3.10165 -0.590103 1.0647
                  CHANNELS 3 Zrotation Xrotation Yrotation
                  End Site
                  {
                    OFFSET -2.48547 -0.328903 0.83742
                  }
                }
              }
              JOINT rRing1
              {
                OFFSET -8.82822 0.546677 1.51678
                CHANNELS 3 Zrotation Xrotation Yrotation
                JOINT rRing2
                {
                  OFFSET -2.60934 -0.819778 -0.0198488
                  CHANNELS 3 Zrotation Xrotation Yrotation
                  End Site
                  {
                    OFFSET -2.33842 -0.294052 0.168128
                  }
                }
              }
              JOINT rPinky1
              {
                OFFSET -8.27202 -0.0477905 -0.4584
                CHANNELS 3 Zrotation Xrotation Yrotation
                JOINT rPinky2
                {
                  OFFSET -1.82734 -0.647385 -0.700984
                  CHANNELS 3 Zrotation Xrotation Yrotation
                  End Site
                  {
                    OFFSET -1.69225 -0.51767 -0.607171
                  }
                }
              }
            }
          }
        }
      }
      JOINT lCollar
      {
        OFFSET 2.68224 19.2634 -4.8768
        CHANNELS 3 Zrotation Xrotation Yrotation
        JOINT lShldr
        {
          OFFSET 8.77824 -1.95073 1.46304
          CHANNELS 3 Zrotation Xrotation Yrotation
          JOINT lForeArm
          {
            OFFSET 28.1742 -1.7115 0.48768
            CHANNELS 3 Zrotation Xrotation Yrotation
            JOINT lHand
            {
              OFFSET 22.5879 0.773209 7.07136
              CHANNELS 3 Zrotation Xrotation Yrotation
              JOINT lThumb1
              {
                OFFSET 1.2192 -0.487915 3.41376
                CHANNELS 3 Zrotation Xrotation Yrotation
                JOINT lThumb2
                {
                  OFFSET 3.37035 -0.52449 3.41376
                  CHANNELS 3 Zrotation Xrotation Yrotation
                  End Site
                  {
                    OFFSET 1.78271 -1.18214 1.43049
                  }
                }
              }
              JOINT lIndex1
              {
                OFFSET 7.75947 0.938293 5.60832
                CHANNELS 3 Zrotation Xrotation Yrotation
                JOINT lIndex2
                {
                  OFFSET 2.54057 -0.884171 1.56538
                  CHANNELS 3 Zrotation Xrotation Yrotation
                  End Site
                  {
                    OFFSET 1.62519 -0.234802 1.16502
                  }
                }
              }
              JOINT lMid1
              {
                OFFSET 8.24714 1.18213 3.41376
                CHANNELS 3 Zrotation Xrotation Yrotation
                JOINT lMid2
                {
                  OFFSET 3.10165 -0.590103 1.0647
                  CHANNELS 3 Zrotation Xrotation Yrotation
                  End Site
                  {
                    OFFSET 2.48547 -0.328903 0.83742
                  }
                }
              }
              JOINT lRing1
              {
                OFFSET 8.82822 0.546677 1.51678
                CHANNELS 3 Zrotation Xrotation Yrotation
                JOINT lRing2
                {
                  OFFSET 2.60934 -0.819778 -0.0198488
                  CHANNELS 3 Zrotation Xrotation Yrotation
                  End Site
                  {
                    OFFSET 2.33842 -0.294052 0.168128
                  }
                }
              }
              JOINT lPinky1
              {
                OFFSET 8.27202 -0.0477905 -0.4584
                CHANNELS 3 Zrotation Xrotation Yrotation
                JOINT lPinky2
                {
                  OFFSET 1.82734 -0.647385 -0.700984
                  CHANNELS 3 Zrotation Xrotation Yrotation
                  End Site
                  {
                    OFFSET 1.69225 -0.51767 -0.607171
                  }
                }
              }
            }
          }
        }
      }
    }
  }
  JOINT rButtock
  {
    OFFSET -8.77824 4.35084 1.2192
    CHANNELS 3 Zrotation Xrotation Yrotation
    JOINT rThigh
    {
      OFFSET 0 -1.70687 -2.19456
      CHANNELS 3 Zrotation Xrotation Yrotation
      JOINT rShin
      {
        OFFSET 0 -36.8199 0.73152
        CHANNELS 3 Zrotation Xrotation Yrotation
        JOINT rFoot
        {
          OFFSET 0.73152 -45.1104 -5.12064
          CHANNELS 3 Zrotation Xrotation Yrotation
          End Site
          {
            OFFSET -1.1221 -3.69964 12.103
          }
        }
      }
    }
  }
  JOINT lButtock
  {
    OFFSET 8.77824 4.35084 1.2192
    CHANNELS 3 Zrotation Xrotation Yrotation
    JOINT lThigh
    {
      OFFSET 0 -1.70687 -2.19456
      CHANNELS 3 Zrotation Xrotation Yrotation
      JOINT lShin
      {
        OFFSET 0 -36.8199 0.73152
        CHANNELS 3 Zrotation Xrotation Yrotation
        JOINT lFoot
        {
          OFFSET -0.73152 -45.1104 -5.12064
          CHANNELS 3 Zrotation Xrotation Yrotation
          End Site
          {
            OFFSET 1.1221 -3.69964 12.103
          }
        }
      }
    }
  }
}
MOTION
Frames:	8
Frame Time:	0.03333
0.0 0.0 0.0 0.0 0.0 0.0 0.0 0.0 0.0 0.0 0.0 0.0 0.0 0.0 0.0 0.0 0.0 0.0 0.0 0.0 0.0 0.0 0.0 0.0 0.0 0.0 0.0 0.0 0.0 0.0 0.0 0.0 0.0 0.0 0.0 0.0 0.0 0.0 0.0 0.0 0.0 0.0 0.0 0.0 0.0 0.0 0.0 0.0 0.0 0.0 0.0 0.0 0.0 0.0 0.0 0.0 0.0 0.0 0.0 0.0 0.0 0.0 0.0 0.0 0.0 0.0 0.0 0.0 0.0 0.0 0.0 0.0 0.0 0.0 0.0 0.0 0.0 0.0 0.0 0.0 0.0 0.0 0.0 0.0 0.0 0.0 0.0 0.0 0.0 0.0 0.0 0.0 0.0 0.0 0.0 0.0 0.0 0.0 0.0 0.0 0.0 0.0 0.0 0.0 0.0 0.0 0.0 0.0 0.0 0.0 0.0 0.0 0.0 0.0 0.0 0.0 0.0 0.0 0.0 0.0 0.0 0.0 0.0 0.0 0.0 0.0 0.0 0.0 0.0 0.0 0.0 0.0
-0.08270000000000001 47.902 0.064 -179.60256 53.654678 179.525803 0.341907 0.15924 79.304749 11.35115 4.000262 -72.516326 5.873617 -8.898701 86.355729 -56.288621 -24.036951 -78.186421 -58.034843 11.079172 -19.835002 1.705707 -0.851422 -53.050617 -101.39278 28.578855 -15.938319 27.323494 -42.343488 -165.214447 2.826522 7.066627 -12.994509 -9.01775 79.592612 -2.468048 127.936852 -83.891486 -71.567641 86.757007 16.183469 -12.09052 57.805948 42.557542 -73.151412 142.596084 53.284845 71.431388 -13.958081 -23.965847 29.819447 -156.111186 -14.392736 80.682977 77.979507 -23.027064 62.785721 89.118591 -59.575263 87.372727 96.468808 -76.564768 83.404609 -179.392226 -8.695747 87.227271 96.604363 -43.151762 -146.326149 2.706671 -1.135726 -19.807846 25.505778 85.066554 -32.816316 -159.580728 19.398053 150.756412 5.800695 -20.194836 112.51161 -169.548764 17.15211 123.633083 -136.838874 30.13139 150.567684 -80.882776 -78.753633 148.755109 -42.030476 52.320017 93.497543 103.771492 23.910342 -36.217849 37.083829 -37.921767 29.834524 141.105192 -14.75974 -17.969433 -64.904457 56.741979 77.51469 71.550459 -27.827889 13.311033 -47.379489 -4.509593 -90.705849 -8.775413 45.82941 -167.854202 2.008257 -3.359782 104.778646 91.1521 0.653881 -58.196699 58.940444 -41.34372 73.917876 9.589826 66.461857 122.287139 -5.731704 -2.508385 -114.263629 40.306828 -12.367152 -150.577637
-0.3829 67.05449999999999 -0.48219999999999996 -4.897027 18.591971 -0.579647 -0.551316 14.782803 35.643038 -4.18562 -8.921873 -32.457038 -13.784395 14.845405 -18.365307 35.495495 -23.819356 30.947466 157.742167 18.122106 -78.063003 -2.860195 -0.882652 34.294251 -10.794991 24.480331 10.5815 47.164438 -4.329093 6.106472 -127.840605 -17.137895 3.1304 68.54347 -66.564573 51.669508 -7.041851 -69.600536 -40.697231 -40.439768 -73.393143 -161.218132 -90.591854 23.6385 67.742536 12.880269 33.800225 54.275145 -125.283862 60.980182 74.768679 143.245269 -19.352134 100.867362 -89.076034 -10.57406 96.559717 88.800815 -39.194414 -16.556275 -108.143921 56.092202 -163.299521 -133.992382 29.806244 75.0665 158.348323 -0.562738 -166.346965 42.670987 0.178751 0.87328 -1.33813 -10.081397 93.278944 -175.845659 -1.151299 -143.942902 91.411042 43.079429 -43.537195 75.043937 -10.613147 -33.859871 104.464047 38.122039 -76.695188 5.793867 21.08323 20.06577 18.21393 41.241017 -20.772012 8.18133 29.789871 23.210469 22.631961 4.777481 12.638315 -10.655672 19.674084 -40.111139 -134.874465 33.497093 102.249327 137.064821 -0.817266 3.735647 -44.678896 29.126479 -53.125006 58.371712 -14.803911 -67.68857 -56.427085 -15.030113 38.39883 127.799305 17.046289 -45.79133 6.87753 12.56384 8.952984 21.284694 -44.475644 -180.0 29.720387 -48.717076 -44.899077 -148.364452 -29.097176 97.481898
-0.4733 58.5307 -0.6099 -5.928134 17.826009 2.501458 0.780235 6.846581 -109.8222 6.441721 -0.514296 108.43843 -11.673329 20.044013 -72.066361 34.536823 11.465015 79.615326 -121.73808 23.728344 41.30886 -20.182948 -8.985758 47.643618 -155.177619 -6.146445 152.401943 -97.4148 50.623593 101.135699 -24.628532 -5.554428 100.101707 9.008462 45.425372 -15.851891 90.817333 -58.196717 50.196477 100.56981 -42.913009 142.818487 154.651553 -34.790792 142.199166 -174.78358 -5.48359 129.38293 -15.700319 14.942296 -22.779355 -44.468569 4.353498 22.804395 164.272932 -42.196527 166.650118 -74.231269 -78.642454 -97.734892 39.369644 -56.623121 14.114101 100.486502 -74.511996 83.818567 23.440063 -57.562737 37.209088 70.377669 -61.686832 106.457929 161.540525 10.406239 132.982474 -13.167384 -23.500835 0.333881 -15.697034 -14.09977 2.405944 131.107701 6.352326 -95.779106 -60.696493 -70.351293 -24.324085 63.375175 11.028495 -67.094858 -61.219999 -63.321564 -35.771181 138.930471 21.778629 -86.091649 155.357493 39.414887 148.739186 51.220835 8.606586 99.584572 -173.122471 7.285466 131.572101 16.172204 42.53496 25.15137 -69.365895 48.65744 -41.533316 85.638249 -24.040876 88.220206 66.950186 32.876315 -77.320755 -0.626766 -16.100173 6.020726 -2.039437 3.199279 32.540664 18.873133 -55.435283 -42.302603 -47.823323 26.087292 -3.135958 39.493562 31.654085 23.037023
0.1327 58.3091 0.3869 -3.115154 15.485013 5.302083 -2.902872 2.68303 -107.053443 -0.276646 -0.305217 98.346712 7.336969 17.031977 88.003516 -35.754989 0.130539 -81.227599 -38.700032 -20.86853 55.344075 -31.663814 2.306232 -8.12024 21.199639 -42.715112 15.479191 -19.09148 51.636889 13.702047 -60.109901 -83.590042 20.109503 142.939986 68.197742 -162.273555 118.814914 77.71016 -171.978044 -174.479908 -55.769879 92.607773 -34.343767 11.360774 -55.276892 -2.913142 16.709683 3.295261 -122.532419 -78.202694 -97.79331 -10.872756 49.05544 1.430889 126.648085 -32.605767 156.128377 -44.902419 -54.7758 -71.182149 24.873646 72.243435 88.201518 163.440348 -60.741867 -74.72311 -3.877027 76.266527 0.848086 -99.865924 -52.709234 -77.052147 13.512157 17.44178 -65.843111 -12.162532 -36.891917 1.810104 166.043797 -33.141606 -105.741919 -3.336861 -20.77964 -4.088795 -169.641448 -58.868209 -97.495145 8.786052 -20.131773 -3.046995 72.007177 85.870904 -78.298292 135.951187 -73.222486 127.668348 4.706631 6.418489 31.493323 136.859739 21.020795 -110.317905 34.312154 -47.953963 1.229719 -37.594905 53.165022 62.921117 6.556193 15.766651 -0.0 -40.469527 -48.17865 -48.863123 -0.070906 76.69797 142.452878 -1.221811 28.719714 -150.298315 -16.654922 -27.836764 11.732908 36.627182 -22.305792 104.831767 39.028988 -6.052782 -93.928803 71.100226 -27.795757 -29.879862
0.7361000000000001 64.3477 2.2721 -2.902313 14.653383 6.638396 -3.319448 2.338183 -99.322421 -0.950647 3.190797 82.342898 -22.754705 20.665361 -95.488223 45.354168 27.952249 96.457109 -15.356424 -13.098574 80.833454 -27.861289 12.984923 -49.29145 -31.52312 20.162287 41.596975 13.101527 32.963893 -9.682452 -57.272843 15.927305 -86.970803 26.676977 9.440091 2.322155 179.498945 19.799999 149.794539 30.812234 -22.481785 18.241812 -63.375117 -2.793958 -72.561858 -110.660476 -10.53362 114.395406 -62.057686 62.334424 -3.143546 -165.129238 0.448939 137.322585 -154.688251 67.036328 80.264594 162.179015 -15.446271 -167.451338 137.277013 -50.10125 30.194005 113.379858 -37.991977 59.846295 -20.387249 35.937091 26.789623 -38.852265 0.940955 -23.429947 36.881636 -16.795092 -48.685275 -28.093315 -53.720362 -8.153241 87.388606 50.622132 -57.965855 10.698318 -51.367018 23.473111 -178.31006 -47.213916 -98.581394 -127.187311 9.760899 -130.170009 103.576889 78.416769 -123.792104 -94.902911 64.473329 130.207391 15.214555 62.37413 -13.282225 8.658449 -1.803625 -8.825296 29.456468 -7.250533 -29.683758 -29.746988 2.121761 54.968944 -62.788337 20.416496 -13.916305 68.165357 -38.222478 -34.689393 -55.832302 54.623615 148.909736 -24.016926 -9.848406 -108.758562 -74.198765 19.325743 -68.361681 111.903342 35.089623 76.985759 25.61182 32.504079 -140.417658 16.832674 -70.843405 119.044484
1.3663 67.1852 4.3167 -2.362059 15.677505 7.914358 -4.987772 0.669889 -180.0 -6.821134 -0.705055 157.70837 -5.804986 14.032982 98.497839 -38.952166 0.298216 -79.844792 -172.825792 6.777759 86.736679 -28.81939 14.885555 -53.9011 90.377888 -55.177529 79.761025 -11.808154 13.23121 20.185762 103.425035 12.161374 85.880538 100.490353 -41.966321 98.444626 177.197355 13.94238 143.909261 -100.700244 -22.971823 43.514127 -177.06357 12.748868 -156.439317 -155.848218 8.853129 -168.631654 -40.024315 37.537652 -28.874742 13.745215 -28.712646 25.771446 -131.060867 -30.245238 -67.56721 -60.507984 38.880023 109.29611 77.122831 45.098821 125.766636 -51.072929 -27.839934 38.166829 -96.145989 73.579404 80.388281 -66.738445 -47.030523 -61.599361 4.152306 -21.899332 -61.987613 -10.0501 -21.182642 9.558358 -12.245052 -6.120405 3.613542 71.052854 9.513448 -27.670296 -12.664273 -8.100099 -20.730228 -175.721471 55.074432 113.638023 -31.827538 -3.692525 12.948645 -49.494389 -56.356068 -85.895388 87.52383 66.184613 -90.456472 -6.513716 36.861536 -7.774289 5.177823 -70.65233 -39.138967 17.845695 11.602119 11.912094 -83.523925 22.092109 -15.173183 89.031334 -30.559824 175.846664 -10.006409 -72.312158 -106.408199 -10.790945 38.944209 -93.750771 -74.32688 75.602241 -98.118011 -178.88128 54.69145 -0.0 -1.205468 37.287475 76.100038 -132.009099 -6.623101 74.307843
2.061 68.0769 6.2177999999999995 -1.50418 16.807876 7.467214 -2.013005 6.244527 -66.116772 5.61133 2.621702 43.77279 -24.508564 7.986173 -54.096168 37.938296 -4.215695 69.775286 -172.512954 6.316212 80.28 -32.720282 16.198222 -51.724184 90.333538 -56.120005 79.679548 -89.128152 69.598145 89.628606 -80.671598 -82.925821 0.158914 152.368581 -18.40171 159.726568 -0.098411 -4.119552 -54.721308 42.290715 -66.927386 -35.429971 -80.81217 -47.760418 -160.815047 162.992264 10.808379 17.212653 -178.363672 0.417096 -170.366907 157.607687 5.893638 -90.841991 -47.720971 -10.917687 -89.283767 -110.706679 14.520138 68.220756 51.95863 41.297205 -164.020228 -166.660203 39.151113 146.446129 -38.476963 41.753406 34.869149 -54.424384 -29.438168 -35.736544 -173.745389 7.392691 -80.86151 176.758853 19.663602 -126.424603 10.527978 11.111887 -9.587496 153.533485 -2.625459 -111.590537 32.11637 11.144302 -47.594482 27.707838 -3.029865 -135.657034 126.5279 -43.734501 -157.680011 110.027173 -55.110436 -135.480217 150.844559 -7.514006 -158.223948 3.861355 23.620645 -31.458032 69.035508 36.997794 -99.206229 4.179499 -14.653501 42.039285 -9.283442 27.402335 19.553241 -47.085577 -58.430713 180.0 -79.979337 -8.73384 -107.687366 -104.138988 21.439926 -164.11993 102.62047 78.085135 83.536358 -156.333301 49.577644 -83.062774 -41.28308 -11.142555 2.183067 124.491593 8.060801 -100.531411
